# xmcd
#
# Track frame offsets:
#	150
#	15502
#	36417
#	52413
#	67887
#	86913
#	105342
#	126601
#	149989
#	174306
#	186855
#	203005
#	222593
#	238838
#	254268
#	273007
#	287636
#
# Disc length: 4087 seconds
#
# Revision: 0
# Processed by: cddbd v1.5.1PL2 Copyright (c) Steve Scherf et al.
# Submitted via: audiograbber 1.83.01
#
DISCID=0d0ff511
DTITLE=Varios - Lovesongs - Greathits
DYEAR=2003
DGENRE=romantic
TTITLE0=Against All Odds
TTITLE1=From This Moment On
TTITLE2=How Deep Is Your Love
TTITLE3=Wherever You Will Go
TTITLE4=It Ain T Over Til It S Over
TTITLE5=Crazy For You
TTITLE6=Greatest Love Of All
TTITLE7=From The Bottom Of My Broken Heart
TTITLE8=Listen To Your Heart
TTITLE9=Knockin On Heaves Door
TTITLE10=You Re Still The One
TTITLE11=How Couid An Angel Breack My Heat
TTITLE12=Whitout You
TTITLE13=I M Not In Love
TTITLE14=Immortality
TTITLE15=In Your Eyes
TTITLE16=She Believes In Me
EXTD=
EXTT0=
EXTT1=
EXTT2=
EXTT3=
EXTT4=
EXTT5=
EXTT6=
EXTT7=
EXTT8=
EXTT9=
EXTT10=
EXTT11=
EXTT12=
EXTT13=
EXTT14=
EXTT15=
EXTT16=
PLAYORDER=
